<?xml version="1.0" encoding="UTF-8" standalone="no"?>
<!DOCTYPE svg PUBLIC "-//W3C//DTD SVG 1.1//EN" "http://www.w3.org/Graphics/SVG/1.1/DTD/svg11.dtd">
<svg width="100%" height="100%" viewBox="0 0 1623 350" version="1.1" xmlns="http://www.w3.org/2000/svg" xmlns:xlink="http://www.w3.org/1999/xlink" xml:space="preserve" xmlns:serif="http://www.serif.com/" style="fill-rule:evenodd;clip-rule:evenodd;stroke-linejoin:round;stroke-miterlimit:2;">
    <g transform="matrix(1,0,0,1,-70.1017,-393.968)">
        <g transform="matrix(1.10846,0,0,1.10846,-261.943,-68.3411)">
            <path d="M533.804,437.54C539.398,439.639 542.235,445.885 540.136,451.479C538.036,457.073 531.79,459.911 526.196,457.811C501.606,448.583 458.118,432.888 420.724,443.234C337.85,466.165 311.487,547.724 324.26,614.464C332.578,657.928 357.357,695.675 395.365,705.427C495.471,731.114 546.418,659.465 555.549,649.557C559.598,645.163 566.453,644.884 570.846,648.933C575.24,652.983 575.519,659.837 571.47,664.23C561.144,675.434 503.185,755.446 389.983,726.399C344.367,714.694 312.978,670.699 302.994,618.534C288.315,541.833 319.706,448.72 414.95,422.367C457.03,410.724 506.132,427.155 533.804,437.54Z" style="fill:rgb(35,31,32);"/>
        </g>
        <g transform="matrix(1.10846,0,0,1.10846,-267.676,-63.3635)">
            <path d="M467.167,479.473C492.09,482.586 509.943,492.628 521.895,506.2C539.799,526.53 544.594,555.272 538.526,582.867C528.567,628.166 489.57,669.459 436.668,663.554C377.986,657.004 355.282,607.138 362.791,560.509C370.217,514.396 407.294,471.996 467.167,479.473ZM464.484,500.958C418.234,495.182 389.904,528.331 384.167,563.951C378.514,599.056 394.892,637.105 439.07,642.036C480.197,646.627 509.637,613.434 517.38,578.218C521.934,557.503 519.085,535.77 505.646,520.509C496.704,510.355 483.131,503.287 464.484,500.958Z" style="fill:rgb(35,31,32);"/>
        </g>
        <g transform="matrix(0.757924,0,0,1.10846,-100.651,-19.7041)">
            <path d="M683.596,677.498C683.583,683.473 676.479,688.316 667.74,688.308C659.002,688.299 651.918,683.442 651.93,677.467C652.202,547.844 651.672,521.716 652.365,384.738C652.39,379.92 657.068,375.693 663.842,374.367C670.617,373.042 677.857,374.937 681.605,379.017C724.613,425.833 744.52,447.109 772.896,477.713C807.405,439.144 826.793,416.983 861.55,379.498C865.322,375.43 872.572,373.555 879.337,374.898C886.103,376.242 890.756,380.48 890.755,385.297C890.734,454.624 890.255,475.191 891.439,676.852C891.474,682.827 884.408,687.697 875.67,687.721C866.932,687.745 859.809,682.914 859.774,676.939C858.827,515.666 858.943,470.176 859.039,422.981C836.482,447.853 817.63,469.303 786.609,503.849C783.749,507.034 778.689,508.985 773.223,509.01C767.757,509.035 762.658,507.131 759.736,503.972C731.369,473.309 713.632,454.364 683.86,422.108C683.434,527.889 683.841,560.603 683.596,677.498Z" style="fill:rgb(35,31,32);"/>
        </g>
        <g transform="matrix(1.10846,0,0,1.10846,-343.701,-18.5933)">
            <path d="M884.335,528.114C884.308,567.613 884.398,616.208 884.699,675.075C884.73,681.05 879.904,685.926 873.929,685.956C867.954,685.987 863.078,681.161 863.048,675.186C861.959,462.135 863.63,383.371 863.63,383.371C863.749,377.747 868.157,373.151 873.771,372.796C873.771,372.796 914.325,370.322 946.645,384.922C970.308,395.612 989.695,414.846 989.421,448.706C989.171,479.508 971.365,498.855 949.123,510.738C926.159,523.008 898.412,526.862 884.335,528.114ZM884.363,506.412C897.245,505.201 919.962,501.771 938.92,491.642C954.517,483.308 967.595,470.131 967.77,448.531C967.96,425.087 954.115,412.055 937.731,404.654C919.185,396.276 897.469,394.519 885.104,394.274C884.873,410.375 884.478,445.902 884.363,506.412Z" style="fill:rgb(35,31,32);"/>
        </g>
        <g transform="matrix(1.10846,0,0,1.10846,-393.606,-20.8282)">
            <path d="M1009.16,678.449C1008.22,684.349 1002.66,688.373 996.76,687.429C990.86,686.485 986.836,680.929 987.78,675.029C998.841,605.882 1022.55,566.316 1047.21,526.383C1070.65,488.428 1095.01,450.128 1108.8,382.862C1109.78,378.067 1113.86,374.528 1118.74,374.23C1123.63,373.932 1128.11,376.949 1129.66,381.589C1160.23,472.603 1166.31,495.188 1223.54,674.378C1225.36,680.069 1222.21,686.166 1216.52,687.984C1210.83,689.802 1204.74,686.657 1202.92,680.965C1153.85,527.345 1142.42,488.945 1120.87,423.677C1106.13,472.715 1085.63,505.385 1065.63,537.761C1042.28,575.576 1019.63,612.968 1009.16,678.449Z" style="fill:rgb(35,31,32);"/>
        </g>
        <g transform="matrix(1.10846,0,0,1.10846,-393.606,-20.8282)">
            <path d="M1170.71,560.696C1176.68,560.903 1181.36,565.919 1181.15,571.89C1180.94,577.862 1175.93,582.542 1169.96,582.335C1115.25,580.439 1098.48,581.687 1041.75,579.673C1035.78,579.46 1031.1,574.44 1031.32,568.469C1031.53,562.498 1036.55,557.823 1042.52,558.035C1099.24,560.049 1116,558.8 1170.71,560.696Z" style="fill:rgb(35,31,32);"/>
        </g>
        <g transform="matrix(1.10846,0,0,1.10846,-350.741,-19.2727)">
            <path d="M1231.13,534.572C1231.06,572.223 1231.02,618.677 1231.06,675.563C1231.07,681.538 1226.22,686.392 1220.25,686.397C1214.27,686.402 1209.42,681.555 1209.41,675.58C1209.23,448.766 1209.1,394.471 1210.64,385.642L1211.88,381.629L1214.4,378.212L1217.45,376.205L1220.3,375.378C1239.76,372.486 1278.15,374.004 1305.59,388.126C1326.12,398.696 1340.79,415.869 1340.41,441.928C1340,471.036 1325,491.783 1304.94,506.268C1281.18,523.418 1250.15,531.387 1231.13,534.572ZM1231.19,512.597C1244.55,510.129 1263.04,505.273 1279.83,496.385C1300.19,485.604 1318.38,468.746 1318.77,441.619C1319,424.827 1308.91,414.188 1295.68,407.377C1275.94,397.218 1249.48,394.915 1231.88,395.956C1231.72,409.098 1231.38,443.465 1231.19,512.597Z" style="fill:rgb(35,31,32);"/>
        </g>
        <g transform="matrix(1.73177,0,0,1.0885,-1161.86,13.6694)">
            <path d="M1290.14,499.332C1287.12,495.603 1286.56,488.672 1288.91,483.864C1291.25,479.056 1295.61,478.18 1298.63,481.909C1311.06,497.245 1316.94,519.17 1321.56,544.415C1327.57,577.32 1331.38,616.399 1350.65,650.178C1353.22,654.684 1353.01,661.662 1350.18,665.751C1347.35,669.84 1342.96,669.502 1340.39,664.996C1322.8,634.158 1316.59,599.558 1311.26,567.978C1306.61,540.429 1303.04,515.251 1290.14,499.332Z" style="fill:rgb(35,31,32);"/>
        </g>
        <g transform="matrix(1.10846,0,0,1.10846,-393.606,-20.8282)">
            <path d="M1451.17,398.993C1451.21,393.018 1456.1,388.203 1462.07,388.247C1468.05,388.291 1472.86,393.178 1472.82,399.153C1471.86,529.578 1472.27,543.314 1471.96,675.998C1471.95,681.973 1467.09,686.812 1461.11,686.799C1455.14,686.785 1450.3,681.923 1450.31,675.948C1450.62,543.212 1450.2,529.47 1451.17,398.993Z" style="fill:rgb(35,31,32);"/>
        </g>
        <g transform="matrix(1.10846,0,0,1.10846,-389.965,-30.3788)">
            <path d="M1389.5,406.498C1383.53,406.457 1378.71,401.573 1378.75,395.598C1378.79,389.624 1383.67,384.806 1389.65,384.847C1457.86,385.314 1494.47,385.536 1574.24,384.569C1580.21,384.496 1585.12,389.288 1585.19,395.262C1585.27,401.237 1580.48,406.146 1574.5,406.219C1494.56,407.188 1457.87,406.966 1389.5,406.498Z" style="fill:rgb(35,31,32);"/>
        </g>
        <g transform="matrix(1.10846,0,0,1.10846,-374.766,0.430141)">
            <path d="M1526.59,430.366C1526.62,424.391 1531.49,419.561 1537.46,419.587C1543.44,419.613 1548.27,424.485 1548.24,430.459C1547.78,537.399 1547.86,552.969 1548,659.024C1548.01,664.999 1543.16,669.856 1537.19,669.864C1531.21,669.872 1526.35,665.028 1526.35,659.053C1526.2,552.941 1526.13,537.363 1526.59,430.366Z" style="fill:rgb(35,31,32);"/>
        </g>
        <g transform="matrix(1.10846,0,0,1.10846,-105.722,-2.74274)">
            <path d="M1456.61,441.925C1461.45,445.429 1462.54,452.203 1459.03,457.042C1455.53,461.882 1448.75,462.966 1443.91,459.462C1431.83,450.712 1421.61,448.079 1413.23,449.565C1405.71,450.9 1400.06,455.521 1396.46,460.475C1393.91,463.988 1392.13,467.552 1392.3,470.12C1393.9,494.173 1410.87,508.246 1427.31,522.267C1448.05,539.959 1468.24,557.559 1471.49,585.053C1476.79,629.908 1441.93,672.73 1402.06,672.231C1384.86,672.016 1366.33,664.112 1349.59,644.232C1345.74,639.662 1346.33,632.827 1350.9,628.978C1355.47,625.13 1362.3,625.717 1366.15,630.287C1377.83,644.153 1390.33,650.431 1402.33,650.581C1430.59,650.935 1453.75,619.385 1449.99,587.596C1447.4,565.707 1429.77,552.826 1413.26,538.741C1392.44,520.985 1372.72,502.01 1370.7,471.55C1370.32,465.749 1372.5,457.268 1377.88,449.272C1385.17,438.423 1398.08,428.362 1415.54,427.575C1427.11,427.053 1440.99,430.611 1456.61,441.925Z" style="fill:rgb(35,31,32);"/>
        </g>
        <g transform="matrix(1.10846,0,0,1.10846,-105.722,-2.74274)">
            <path d="M1517.55,660C1517.59,665.974 1512.76,670.853 1506.79,670.888C1500.82,670.922 1495.94,666.1 1495.9,660.125C1494.47,413.789 1494.99,516.141 1494.41,377.936C1494.38,371.961 1499.21,367.09 1505.19,367.065C1511.16,367.04 1516.04,371.87 1516.06,377.845C1516.64,516.034 1516.13,413.694 1517.55,660Z" style="fill:rgb(35,31,32);"/>
        </g>
        <g transform="matrix(1.10846,0,0,1.10846,-105.722,-2.74274)">
            <path d="M1612.59,360.974C1618.53,361.668 1622.78,367.049 1622.09,372.984C1621.39,378.918 1616.01,383.173 1610.08,382.479C1556.34,376.193 1522.43,382.687 1489.78,389.627C1455.25,396.967 1422.04,404.736 1370.5,400.169C1364.55,399.641 1360.15,394.381 1360.67,388.429C1361.2,382.478 1366.46,378.074 1372.41,378.602C1421.18,382.924 1452.6,375.395 1485.28,368.449C1519.84,361.104 1555.72,354.322 1612.59,360.974Z" style="fill:rgb(35,31,32);"/>
        </g>
    </g>
</svg>
